<?xml version="1.0" encoding="utf-8"?>
<!-- Generator: Adobe Illustrator 21.1.0, SVG Export Plug-In . SVG Version: 6.00 Build 0)  -->
<svg version="1.1" id="Layer_1" xmlns="http://www.w3.org/2000/svg" xmlns:xlink="http://www.w3.org/1999/xlink" x="0px" y="0px"
	 viewBox="0 0 113.4 113.4" style="enable-background:new 0 0 113.4 113.4;" xml:space="preserve">
<style type="text/css">
	.st0{fill:none;stroke:#000000;stroke-width:3;stroke-linecap:round;stroke-miterlimit:10;}
</style>
<g>
	<path d="M66.3,45c4.8,0,9.5,2.1,12.7,5.7l7.8,8.8c2.7,3.1,4.3,7.1,4.3,11.2v17.1c0,2.3-1.9,4.2-4.2,4.2H25.2
		c-2.3,0-4.2-1.9-4.2-4.2V70.4c0-4.2,1.6-8.3,4.4-11.4l7.7-8.5C36.3,47,40.9,45,45.6,45H66.3 M66.3,41H45.6
		c-5.9,0-11.5,2.5-15.5,6.8l-7.7,8.5c-3.5,3.9-5.5,8.9-5.5,14.1v17.4c0,4.5,3.7,8.2,8.2,8.2h61.6c4.5,0,8.2-3.7,8.2-8.2V70.7
		c0-5.1-1.9-10.1-5.3-13.9L81.9,48C78,43.6,72.3,41,66.3,41L66.3,41z"/>
</g>
<g>
	<path d="M43.5,51.9c2,0,3.6,1.6,3.6,3.6s-1.6,3.6-3.6,3.6s-3.6-1.6-3.6-3.6S41.5,51.9,43.5,51.9 M43.5,49c-3.6,0-6.5,2.9-6.5,6.5
		s2.9,6.5,6.5,6.5s6.5-2.9,6.5-6.5S47.1,49,43.5,49L43.5,49z"/>
</g>
<g>
	<path d="M68,51.9c2,0,3.6,1.6,3.6,3.6S70,59.1,68,59.1s-3.6-1.6-3.6-3.6S66,51.9,68,51.9 M68,49c-3.6,0-6.5,2.9-6.5,6.5
		S64.4,62,68,62s6.5-2.9,6.5-6.5S71.6,49,68,49L68,49z"/>
</g>
<path class="st0" d="M43.3,56c0-19.3,5.6-35,12.5-35s12.5,15.7,12.5,35"/>
</svg>
