<?xml version="1.0" encoding="utf-8"?>
<!-- Generator: Adobe Illustrator 21.1.0, SVG Export Plug-In . SVG Version: 6.00 Build 0)  -->
<svg version="1.1" id="Layer_1" xmlns="http://www.w3.org/2000/svg" xmlns:xlink="http://www.w3.org/1999/xlink" x="0px" y="0px"
	 viewBox="0 0 83.4 83.4" style="enable-background:new 0 0 83.4 83.4;" xml:space="preserve">
<style type="text/css">
	.st0{fill:none;stroke:#000000;stroke-width:3;stroke-miterlimit:10;}
	.st1{fill:none;stroke:#000000;stroke-width:7.7357;stroke-linecap:round;stroke-miterlimit:10;}
</style>
<g>
	<g>
		<path d="M35.5,21.9c3.9,0,7.5,1.5,10.2,4.2s4.2,6.3,4.2,10.2s-1.5,7.5-4.2,10.2s-6.3,4.2-10.2,4.2s-7.5-1.5-10.2-4.2
			s-4.2-6.3-4.2-10.2s1.5-7.5,4.2-10.2S31.6,21.9,35.5,21.9 M35.5,15.5c-5.3,0-10.6,2-14.7,6.1c-8.1,8.1-8.1,21.2,0,29.3
			C24.9,55,30.2,57,35.5,57s10.6-2,14.7-6.1c8.1-8.1,8.1-21.2,0-29.3C46.1,17.6,40.8,15.5,35.5,15.5L35.5,15.5z"/>
	</g>
	<g>
		<g>
			<line class="st0" x1="47.3" y1="47.8" x2="65.9" y2="66.5"/>
		</g>
		<g>
			<line class="st1" x1="54" y1="54.5" x2="64.9" y2="65.4"/>
		</g>
	</g>
</g>
</svg>
